<?xml version="1.0" standalone="no"?>
<!DOCTYPE svg PUBLIC "-//W3C//DTD SVG 20010904//EN"
 "http://www.w3.org/TR/2001/REC-SVG-20010904/DTD/svg10.dtd">
<svg version="1.0" xmlns="http://www.w3.org/2000/svg"
 width="512.000000pt" height="512.000000pt" viewBox="0 0 512.000000 512.000000"
 preserveAspectRatio="xMidYMid meet">
<metadata>
Created by potrace 1.11, written by Peter Selinger 2001-2013
</metadata>
<g transform="translate(0.000000,512.000000) scale(0.100000,-0.100000)"
fill="#000000" stroke="none">
<path d="M2582 4790 c-212 -56 -373 -223 -417 -435 -18 -84 -19 -141 -4 -221
14 -78 70 -197 120 -256 56 -66 69 -95 69 -151 0 -51 -16 -92 -46 -118 -11 -8
-64 -35 -119 -60 -95 -42 -104 -44 -195 -44 -87 0 -100 3 -149 30 -84 46 -136
104 -182 200 -71 149 -169 230 -312 256 -239 44 -467 -152 -467 -402 0 -103
63 -232 147 -303 45 -38 127 -73 213 -91 97 -20 150 -47 208 -104 95 -92 122
-207 87 -378 -20 -101 -33 -126 -78 -153 -52 -32 -123 -27 -204 15 -183 94
-403 84 -573 -26 -307 -198 -352 -625 -94 -883 247 -248 658 -213 868 73 43
58 87 81 153 81 63 -1 82 -13 136 -86 25 -34 82 -100 127 -148 104 -111 125
-154 125 -266 0 -126 -28 -192 -125 -295 -88 -92 -112 -129 -134 -204 -56
-189 36 -387 219 -472 195 -92 431 -7 527 189 l33 67 0 190 c0 184 1 192 26
245 63 132 140 181 316 204 128 17 253 48 333 83 59 26 93 24 145 -8 44 -26
72 -83 80 -164 35 -344 335 -578 665 -521 456 80 635 638 309 965 -99 98 -213
151 -368 169 -91 11 -121 26 -159 83 -30 44 -26 92 17 211 55 150 64 219 65
468 l1 225 28 53 c62 118 161 180 309 193 159 15 248 54 323 142 204 238 73
601 -238 658 -165 30 -315 -45 -421 -210 -53 -82 -101 -125 -184 -164 -53 -25
-78 -30 -136 -31 -88 0 -130 14 -231 77 -44 28 -117 68 -162 89 -89 42 -129
80 -139 134 -10 53 9 100 72 184 93 123 127 221 126 366 0 154 -54 279 -171
395 -148 147 -341 201 -539 149z m269 -257 c115 -51 189 -164 189 -289 0 -92
-18 -142 -84 -229 -71 -93 -93 -140 -108 -224 -22 -126 20 -260 110 -350 36
-36 82 -65 173 -109 278 -135 461 -353 535 -637 21 -81 26 -125 27 -230 2
-149 -15 -238 -70 -380 -32 -83 -35 -97 -31 -175 6 -134 65 -241 172 -315 67
-45 122 -64 226 -76 107 -12 174 -44 234 -110 55 -61 80 -131 79 -221 -2 -123
-67 -224 -179 -279 -60 -30 -69 -31 -151 -27 -73 3 -97 9 -141 33 -103 56
-154 143 -171 290 -25 211 -160 357 -358 387 -75 12 -115 4 -245 -46 -119 -45
-215 -59 -372 -53 -164 6 -243 25 -381 92 -145 70 -275 181 -382 325 -81 110
-188 163 -323 162 -136 -1 -248 -59 -339 -175 -88 -112 -172 -153 -294 -145
-85 6 -153 37 -209 95 -125 130 -117 343 17 461 108 95 233 106 385 34 113
-54 195 -67 290 -48 91 19 158 56 219 121 64 67 85 112 105 216 37 200 126
370 266 509 83 84 166 140 295 201 123 58 184 112 226 203 75 160 53 324 -62
461 -68 81 -94 147 -93 235 0 91 23 148 85 215 69 75 147 107 249 101 37 -1
85 -12 111 -23z m-1501 -805 c40 -21 50 -33 92 -119 72 -144 169 -242 304
-306 32 -15 61 -29 63 -30 2 -1 -15 -27 -39 -58 -40 -52 -60 -67 -60 -46 0 18
-104 123 -165 166 -77 55 -130 78 -231 100 -93 21 -125 35 -152 70 -59 74 -26
192 63 231 44 19 75 17 125 -8z m3016 -187 c104 -47 115 -206 17 -262 -16 -10
-72 -22 -128 -28 -55 -6 -128 -20 -163 -32 -72 -24 -191 -100 -241 -153 -19
-20 -38 -36 -42 -36 -10 0 -75 110 -69 118 3 3 32 16 65 27 137 46 275 151
335 254 71 121 135 153 226 112z m-1985 -2267 c0 -5 -14 -32 -31 -61 -71 -117
-109 -285 -91 -402 16 -101 14 -139 -10 -178 -24 -38 -84 -73 -126 -73 -104 1
-179 109 -143 204 5 15 45 64 89 111 52 55 90 106 111 149 35 74 70 202 70
256 0 20 2 39 5 42 8 8 126 -37 126 -48z"/>
<path d="M2745 3090 c-221 -26 -404 -179 -455 -382 -8 -29 -11 -124 -8 -275
l3 -229 37 -75 c47 -94 84 -138 164 -195 100 -72 182 -96 344 -102 199 -7 230
11 230 134 0 47 -4 60 -28 83 -26 26 -34 28 -139 33 -89 4 -121 10 -165 30
-75 34 -122 79 -155 146 -27 54 -28 64 -28 202 0 131 2 150 24 197 26 59 88
121 153 154 33 17 69 24 159 29 65 5 125 14 137 21 30 19 42 52 42 114 0 46
-5 60 -28 86 -27 31 -31 32 -123 35 -52 1 -125 -1 -164 -6z"/>
<path d="M4312 2619 c-79 -15 -155 -78 -191 -159 -28 -61 -28 -159 0 -220 81
-180 320 -217 452 -70 52 57 70 102 70 180 0 84 -25 142 -87 198 -72 66 -152
90 -244 71z"/>
<path d="M1411 1438 c-155 -76 -141 -301 23 -363 152 -58 308 94 256 249 -37
114 -170 168 -279 114z"/>
</g>
</svg>
